<svg width="530" height="413" viewBox="0 0 530 413" fill="none" xmlns="http://www.w3.org/2000/svg">
<ellipse cx="42.7804" cy="134.771" rx="30.5" ry="30" transform="rotate(-135.757 42.7804 134.771)" fill="#0694A2"/>
<ellipse cx="426.115" cy="238.11" rx="15.7666" ry="15.5081" transform="rotate(-135.757 426.115 238.11)" fill="#0694A2"/>
<path fill-rule="evenodd" clip-rule="evenodd" d="M340.738 357C370.623 328.23 389 289.106 389 246C389 157.634 311.77 86 216.5 86C121.23 86 44 157.634 44 246C44 289.106 62.377 328.23 92.2617 357H340.738Z" fill="#5EAB80"/>
<path d="M487.852 291.464L501.335 291.181L507.975 291.07C510.186 291.02 512.376 291.07 514.576 291.01L514.132 291.464L514.071 280.171L514.576 280.675L501.183 280.615C496.733 280.615 492.282 280.494 487.821 280.443L488.104 280.171C488.104 282.018 488.013 283.874 487.963 285.762L487.852 291.464ZM487.852 291.464L487.71 285.873C487.71 283.996 487.599 282.088 487.579 280.171V279.898H487.852C492.312 279.848 496.763 279.737 501.214 279.727L514.576 279.666H515.08V280.171V291.464V291.918H514.626C512.376 291.918 510.115 291.918 507.875 291.857L501.153 291.746L487.852 291.464Z" fill="#EBEBEB"/>
<path d="M502.759 305.703L516.242 305.42L522.883 305.309C525.093 305.259 527.283 305.309 529.483 305.249L529.039 305.703L528.988 294.41L529.483 294.914L516.121 294.854C511.67 294.854 507.22 294.733 502.759 294.682L503.041 294.41C503.041 296.257 502.951 298.114 502.91 300.001L502.759 305.703ZM502.759 305.703L502.618 300.112C502.618 298.235 502.507 296.327 502.486 294.41V294.137H502.759C507.22 294.087 511.67 293.976 516.121 293.966L529.483 293.905H529.998V294.41L529.937 305.703V306.157H529.443C527.192 306.157 524.941 306.157 522.691 306.097L515.97 305.986L502.759 305.703Z" fill="#EBEBEB"/>
<path d="M472.945 305.703H499.669V294.41H472.945V305.703Z" fill="#EBEBEB"/>
<path d="M128.499 305.703H155.224V294.41H128.499V305.703Z" fill="#EBEBEB"/>
<path d="M502.759 11.7978L516.242 11.5152L522.883 11.4042C525.093 11.4042 527.283 11.4042 529.483 11.3436L529.039 11.7978L528.988 0.504611L529.483 1.00922L516.121 0.918391C511.67 0.918391 507.22 0.807377 502.759 0.756916L503.041 0.484426C503.041 2.3313 502.951 4.18827 502.91 6.06542L502.759 11.7978ZM502.759 11.7978L502.618 6.20671C502.618 4.31947 502.507 2.42213 502.486 0.504611V0.23212H502.759C507.22 0.181659 511.67 0.0807374 516.121 0.0706452L529.443 0H529.957V0.504611L529.907 11.7978V12.2519H529.443C527.192 12.2519 524.941 12.2519 522.691 12.2519L515.97 12.1409L502.759 11.7978Z" fill="#EBEBEB"/>
<path d="M354.12 252.64H327.396V263.933H354.12V252.64Z" fill="#EBEBEB"/>
<path d="M339.212 238.399L325.729 238.682L319.098 238.793C316.888 238.843 314.688 238.793 312.488 238.853L312.942 238.399L312.993 249.692L312.488 249.188L325.85 249.258C330.301 249.258 334.762 249.369 339.212 249.42L338.94 249.692C338.94 247.845 339.02 245.988 339.071 244.111L339.212 238.399ZM339.212 238.399L339.353 243.99C339.404 245.877 339.464 247.775 339.485 249.692V249.965H339.202C334.751 250.015 330.291 250.116 325.84 250.126L312.458 250.197H311.953V249.692L312.004 238.399V237.945H312.458C314.708 237.945 316.969 237.945 319.209 237.995L325.941 238.106L339.212 238.399Z" fill="#EBEBEB"/>
<path d="M476.429 299.527C492.193 314.958 494.837 338.836 491.516 359.747C491.426 360.231 490.689 360.1 490.689 359.656C490.689 354.893 490.84 350.169 490.82 345.467C490.739 345.255 490.669 345.053 490.578 344.831C486.46 341.803 482.686 338.463 480.334 333.83C477.7 328.653 476.671 322.81 474.652 317.4C474.471 316.885 475.016 317.037 475.379 317.309C484.967 324.374 488.024 331.993 490.78 342.156C490.707 336.836 490.136 331.535 489.074 326.322C486.995 316.673 482.898 307.146 475.954 299.941C475.899 299.878 475.872 299.796 475.877 299.712C475.883 299.629 475.922 299.551 475.984 299.497C476.047 299.442 476.13 299.414 476.213 299.42C476.296 299.425 476.374 299.464 476.429 299.527Z" fill="#263238"/>
<path d="M473.462 301.323C470.747 301.414 469.051 305.754 466.932 307.015C466.711 307.204 466.451 307.343 466.171 307.422C465.891 307.502 465.597 307.519 465.309 307.474C465.021 307.429 464.747 307.322 464.505 307.161C464.262 307 464.057 306.789 463.904 306.541C461.805 303.624 464.681 300.011 467.386 297.993C465.448 298.79 463.844 300.193 461.765 300.586C461.498 300.673 461.216 300.701 460.938 300.67C460.659 300.638 460.391 300.547 460.151 300.402C459.911 300.258 459.704 300.063 459.546 299.832C459.387 299.601 459.28 299.339 459.232 299.063C458.313 295.076 463.269 293.31 466.74 293.219C465.075 292.069 460.312 288.92 462.845 287.376C465.378 285.832 470.999 290.323 472.826 291.796C475.5 293.976 478.699 297.226 478.821 300.627C478.982 304.603 475.551 302.151 473.462 301.323Z" fill="#0694A2"/>
<path opacity="0.1" d="M473.462 301.323C470.747 301.414 469.051 305.754 466.932 307.015C466.711 307.204 466.451 307.343 466.171 307.422C465.891 307.502 465.597 307.519 465.309 307.474C465.021 307.429 464.747 307.322 464.505 307.161C464.262 307 464.057 306.789 463.904 306.541C461.805 303.624 464.681 300.011 467.386 297.993C465.448 298.79 463.844 300.193 461.765 300.586C461.498 300.673 461.216 300.701 460.938 300.67C460.659 300.638 460.391 300.547 460.151 300.402C459.911 300.258 459.704 300.063 459.546 299.832C459.387 299.601 459.28 299.339 459.232 299.063C458.313 295.076 463.269 293.31 466.74 293.219C465.075 292.069 460.312 288.92 462.845 287.376C465.378 285.832 470.999 290.323 472.826 291.796C475.5 293.976 478.699 297.226 478.821 300.627C478.982 304.603 475.551 302.151 473.462 301.323Z" fill="black"/>
<path d="M474.248 301.989C470.777 300.415 464.156 302.686 463.551 301.374C462.4 298.699 467.729 296.872 470.615 296.509C467.971 295.793 462.905 294.652 463.056 292.099C463.248 288.98 470.837 291.665 474.672 294.612C479.516 298.316 479.486 301.898 478.709 302.615C477.569 303.594 474.813 302.252 474.248 301.989Z" fill="#0694A2"/>
<path d="M512.286 297.993C495.946 312.818 492.394 336.575 494.917 357.608C494.987 358.082 495.724 357.981 495.744 357.537C495.926 352.784 495.956 348.06 496.148 343.357C496.249 343.146 496.33 342.944 496.421 342.732C500.649 339.906 504.555 336.676 507.078 332.125C509.904 327.079 511.115 321.256 513.375 315.927C513.587 315.422 513.022 315.553 512.649 315.806C502.799 322.507 499.458 329.995 496.32 340.027C496.583 334.713 497.343 329.435 498.59 324.263C501.023 314.696 505.483 305.29 512.719 298.397C512.773 298.339 512.801 298.263 512.799 298.184C512.796 298.106 512.762 298.031 512.704 297.978C512.647 297.924 512.57 297.896 512.492 297.899C512.413 297.901 512.339 297.935 512.286 297.993Z" fill="#263238"/>
<path d="M515.223 299.91C517.928 300.102 519.462 304.502 521.531 305.844C521.745 306.038 521.998 306.184 522.274 306.272C522.549 306.36 522.841 306.388 523.128 306.353C523.415 306.319 523.691 306.223 523.938 306.073C524.185 305.922 524.396 305.72 524.559 305.481C526.759 302.645 524.024 298.931 521.4 296.812C523.307 297.68 524.851 299.133 526.92 299.607C527.183 299.705 527.464 299.744 527.744 299.724C528.024 299.703 528.296 299.623 528.542 299.488C528.788 299.353 529.002 299.166 529.169 298.942C529.337 298.717 529.455 298.458 529.514 298.184C530.584 294.238 525.648 292.28 522.227 292.068C523.933 290.968 528.817 288.031 526.345 286.376C523.872 284.721 518.079 289 516.202 290.413C513.437 292.432 510.147 295.611 509.874 299.002C509.541 302.968 513.104 300.657 515.223 299.91Z" fill="#0694A2"/>
<path opacity="0.1" d="M515.223 299.91C517.928 300.102 519.462 304.502 521.531 305.844C521.745 306.038 521.998 306.184 522.274 306.272C522.549 306.36 522.841 306.388 523.128 306.353C523.415 306.319 523.691 306.223 523.938 306.073C524.185 305.922 524.396 305.72 524.559 305.481C526.759 302.645 524.024 298.931 521.4 296.812C523.307 297.68 524.851 299.133 526.92 299.607C527.183 299.705 527.464 299.744 527.744 299.724C528.024 299.703 528.296 299.623 528.542 299.488C528.788 299.353 529.002 299.166 529.169 298.942C529.337 298.717 529.455 298.458 529.514 298.184C530.584 294.238 525.648 292.28 522.227 292.068C523.933 290.968 528.817 288.031 526.345 286.376C523.872 284.721 518.079 289 516.202 290.413C513.437 292.432 510.147 295.611 509.874 299.002C509.541 302.968 513.104 300.657 515.223 299.91Z" fill="black"/>
<path d="M514.417 300.546C517.939 299.103 524.509 301.626 525.125 300.334C526.376 297.71 521.088 295.672 518.262 295.207C520.936 294.592 526.043 293.643 525.993 291.09C525.922 287.971 518.232 290.353 514.286 293.108C509.31 296.641 509.24 300.173 509.976 300.96C511.036 302.02 513.831 300.778 514.417 300.546Z" fill="#0694A2"/>
<path d="M495.614 337.149C494.521 345.076 492.834 352.909 490.568 360.584C490.524 360.721 490.431 360.837 490.307 360.91C490.182 360.983 490.035 361.008 489.894 360.979C489.752 360.95 489.627 360.87 489.541 360.754C489.455 360.639 489.414 360.495 489.428 360.351C490.497 353.125 492.455 346.041 493.525 338.815C494.698 331.51 495.117 324.103 494.777 316.713C494.09 304.542 490.79 291.593 482.848 282.066C482.676 281.844 483.039 281.521 483.221 281.733C499.126 300.273 496.593 323 496.583 325.039C498.834 317.369 501.145 308.568 509.703 300.747C510.076 300.414 510.359 300.575 510.298 301.151C508.774 315.381 504.818 322.819 496.563 330.418C496.27 332.679 495.978 334.97 495.614 337.149Z" fill="#263238"/>
<path d="M482.686 284.197C479.82 282.925 475.874 286.568 473.048 286.821C471.544 286.952 470.434 286.366 470.181 284.802C469.475 280.715 474.269 278.424 478.094 277.687C475.682 277.536 473.32 278.182 470.959 277.546C470.638 277.502 470.331 277.39 470.058 277.217C469.784 277.044 469.551 276.814 469.374 276.543C469.197 276.273 469.08 275.967 469.032 275.647C468.983 275.327 469.003 275.001 469.092 274.69C470.101 270.098 476.227 270.774 479.83 272.409C478.679 270.391 475.318 264.709 478.72 264.386C482.121 264.063 485.703 271.541 486.854 273.993C488.539 277.606 490.225 282.582 488.64 286.175C486.803 290.393 484.432 286.114 482.686 284.197Z" fill="#0694A2"/>
<path opacity="0.1" d="M482.686 284.197C479.82 282.925 475.874 286.568 473.048 286.821C471.544 286.952 470.434 286.366 470.181 284.802C469.475 280.715 474.269 278.424 478.094 277.687C475.682 277.536 473.32 278.182 470.959 277.546C470.638 277.502 470.331 277.39 470.058 277.217C469.784 277.044 469.551 276.814 469.374 276.543C469.197 276.273 469.08 275.967 469.032 275.647C468.983 275.327 469.003 275.001 469.092 274.69C470.101 270.098 476.227 270.774 479.83 272.409C478.679 270.391 475.318 264.709 478.72 264.386C482.121 264.063 485.703 271.541 486.854 273.993C488.539 277.606 490.225 282.582 488.64 286.175C486.803 290.393 484.432 286.114 482.686 284.197Z" fill="black"/>
<path d="M483.16 285.287C480.354 281.906 472.301 280.907 472.372 279.231C472.523 275.881 478.972 276.658 482.131 277.738C479.749 275.659 475.066 271.925 476.509 269.351C478.275 266.212 484.795 272.813 487.298 277.808C490.447 284.086 488.62 287.789 487.429 288.133C485.794 288.627 483.624 285.842 483.16 285.287Z" fill="#0694A2"/>
<path d="M506.081 341.43L513.095 395.009H470.415C471.303 390.266 479.246 341.369 479.246 341.369L506.081 341.43Z" fill="#0694A2"/>
<path d="M114 395.009L165.884 394.767L217.778 394.676L321.546 394.515L425.314 394.676L477.209 394.767L529.093 395.009L477.209 395.261L425.314 395.352L321.546 395.514L217.778 395.342L165.884 395.261L114 395.009Z" fill="#263238"/>
<path d="M126.258 394.958H247.899L223.648 253.869H132.687L126.258 394.958Z" fill="#DBDBDB"/>
<path d="M126.258 394.958H136.925L142.91 253.869H132.687L126.258 394.958Z" fill="#A6A6A6"/>
<path d="M179.039 233.574C173.76 254.455 163.9 278.626 168.724 300.425C172.539 317.501 185.104 331.045 199.001 340.945C229.49 362.674 276.055 374.249 306.392 345.799C318.503 334.426 325.81 307.045 312.326 293.714C305.403 286.881 296.179 283.722 287.621 279.423C276.358 273.781 269.142 265.294 265.902 253.102C259.575 229.285 264.974 213.894 267.729 190.097C268.224 185.676 268.082 181.195 264.55 176.664C261.49 172.095 257.244 168.446 252.268 166.108C248.198 163.247 243.482 161.44 238.542 160.85C227.966 159.84 216.067 167.309 206.843 171.608C197.618 175.907 192.471 181.488 189.757 191.53C185.952 205.487 182.601 219.566 179.039 233.574Z" fill="#263238"/>
<path d="M174.396 242.98C180.452 224.148 186.901 205.468 193.218 186.737C193.218 186.615 193.44 186.656 193.41 186.737C188.657 202.299 184.125 217.922 179.17 233.433C174.306 248.632 168.27 263.932 164.758 279.504C156.886 314.464 189.989 336.172 220.265 340.582C221.638 340.784 221.164 342.954 219.781 342.702C193.37 337.999 163.88 322.628 161.821 292.473C160.691 275.982 169.431 258.361 174.396 242.98Z" fill="#263238"/>
<path d="M266.369 187.907C266.387 187.831 266.434 187.765 266.5 187.723C266.566 187.681 266.646 187.668 266.723 187.685C266.799 187.703 266.865 187.75 266.907 187.816C266.949 187.882 266.962 187.962 266.945 188.038C263.867 207.516 258.437 229.941 265.935 249.015C269.65 258.404 276.121 266.447 284.495 272.086C291.136 276.527 298.765 278.364 306.042 281.411C334.472 293.32 326.539 333.396 301.793 344.579C301.278 344.811 300.855 343.923 301.369 343.67C319.041 334.708 328.608 313.777 319.525 295.117C312.269 280.15 292.377 280.342 280.287 270.572C255.207 250.348 259.981 215.812 266.369 187.907Z" fill="#263238"/>
<path d="M229.43 271.319C234.345 302.009 259.525 377.085 279.396 385.785C296.977 393.485 345.238 395.716 362.859 391.638C370.933 389.761 367.955 332.811 355.481 331.953C339.899 330.893 317.938 332.548 304.062 329.551C299.147 328.481 280.577 305.33 247.212 266.818C234.809 252.487 226.674 254.031 229.43 271.319Z" fill="#E5B78C"/>
<path d="M339.234 388.833C340.243 389.337 354.372 396.462 363.142 399.006C369.682 400.893 388.635 405.838 391.4 398.854C393.318 394.091 382.509 389.872 374.94 386.744C370.953 385.078 366.038 380.9 367.209 378.337C369.228 373.856 379.532 378.337 386.294 382.283C399.353 389.872 416.742 403.527 424.725 396.906C427.752 394.394 424.23 389.842 419.113 385.361C427.419 390.579 436.27 394.848 439.742 392.203C441.76 390.69 441.821 388.621 440.751 386.259C443.315 387.087 445.585 386.925 447.16 385.25C449.864 382.414 448.542 378.246 445.595 373.967C446.102 373.909 446.588 373.733 447.014 373.452C447.44 373.172 447.794 372.795 448.048 372.352C453.77 363.632 425.128 338.584 415.228 336.242C386.092 329.319 355.099 331.842 355.099 331.842C343.654 341.026 339.203 388.813 339.234 388.833Z" fill="#E5B78C"/>
<path d="M382.096 362.017C389.034 363.099 395.66 365.648 401.534 369.496C408.921 374.37 413.816 380.072 420.013 385.825C420.044 385.856 420.062 385.898 420.063 385.943C420.064 385.987 420.047 386.03 420.018 386.062C419.988 386.095 419.946 386.115 419.902 386.117C419.858 386.12 419.814 386.106 419.78 386.077C416.834 383.352 404.592 373.078 401.433 370.747C395.726 366.442 389.113 363.495 382.096 362.128C381.975 362.118 381.995 361.997 382.096 362.017Z" fill="#263238"/>
<path d="M387.508 349.655C395.168 351.744 403.009 353.863 410.114 357.486C417.895 361.452 423.981 367.911 429.966 374.128C433.558 377.862 437.07 381.674 440.502 385.563C440.643 385.734 440.421 385.987 440.27 385.825C434.214 379.393 427.95 373.156 421.478 367.114C415.528 361.474 408.521 357.066 400.86 354.146C396.48 352.47 391.968 351.118 387.477 349.816C387.397 349.766 387.417 349.624 387.508 349.655Z" fill="#263238"/>
<path d="M395.69 338.835C403.128 340.369 409.618 341.671 416.208 345.658C424.927 350.936 433.364 359.787 436.301 362.986C439.561 366.468 442.71 370.051 445.798 373.694C445.919 373.835 445.667 374.067 445.536 373.916C438.465 365.94 430.883 358.433 422.838 351.441C419.061 348.051 414.782 345.266 410.152 343.185C405.455 341.345 400.611 339.906 395.67 338.886C395.67 338.886 395.65 338.835 395.69 338.835Z" fill="#263238"/>
<path d="M287.129 305.259L237.031 310.618C237.031 310.618 228.402 286.81 225.485 272.964C221.62 254.636 227.504 248.904 245.872 262.7C258.154 271.924 287.129 305.259 287.129 305.259Z" fill="#0694A2"/>
<path d="M243.146 309.972C242.601 309.972 237.434 310.315 237.091 310.457C236.142 307.631 235.234 304.785 234.265 301.969C233.77 300.566 233.256 299.164 232.731 297.771C232.206 296.378 231.55 294.471 231.035 293.108C231.033 293.084 231.026 293.061 231.014 293.04C231.002 293.02 230.985 293.002 230.965 292.988C230.945 292.975 230.923 292.966 230.899 292.962C230.875 292.959 230.851 292.96 230.828 292.967C230.805 292.974 230.784 292.986 230.766 293.002C230.748 293.018 230.734 293.038 230.725 293.06C230.716 293.083 230.712 293.107 230.713 293.131C230.714 293.155 230.721 293.178 230.732 293.199C231.237 295.026 231.671 296.378 232.105 297.963C232.499 299.365 232.933 300.778 233.387 302.171C234.396 305.118 235.264 308.307 236.414 311.204C236.505 311.426 242.712 310.315 243.237 310.194C243.267 310.124 243.237 309.982 243.146 309.972Z" fill="#263238"/>
<path d="M281.537 301.051C274.2 301.323 266.873 301.707 259.556 302.413C255.903 302.763 252.259 303.17 248.626 303.634C244.993 304.098 241.4 304.936 237.767 305.34C237.732 305.349 237.701 305.369 237.679 305.397C237.657 305.425 237.646 305.46 237.646 305.496C237.646 305.532 237.657 305.567 237.679 305.595C237.701 305.623 237.732 305.644 237.767 305.653C241.37 305.057 245.094 304.936 248.727 304.542C252.36 304.149 256.024 303.745 259.667 303.382C266.954 302.665 274.25 301.918 281.547 301.363C281.789 301.343 281.739 301.04 281.537 301.051Z" fill="#263238"/>
<path d="M263.009 395.181L138.875 394.858C138.875 394.858 164.237 290 191.617 260.733C204.081 247.421 216.262 249.45 226.586 258.018C229.16 260.158 261.092 300.688 263.796 314.807C266.188 327.291 256.046 341.148 256.046 341.148L263.009 395.181Z" fill="#0694A2"/>
<path d="M243.366 279.463C247.403 285.852 251.723 292.008 255.749 298.356C257.819 301.473 259.693 304.715 261.361 308.065C263.07 311.4 264.008 315.077 264.106 318.823C264.318 316.929 264.246 315.014 263.894 313.141C263.523 311.268 262.952 309.441 262.188 307.691C260.628 304.237 258.806 300.907 256.738 297.73C254.821 294.834 252.853 291.947 250.824 289.152C250.491 288.143 250.088 287.194 249.704 286.215C249.107 284.796 248.412 283.421 247.625 282.097C248.044 283.575 248.557 285.024 249.159 286.437C249.351 286.831 249.522 287.214 249.684 287.618C247.645 284.873 245.539 282.155 243.366 279.463Z" fill="#263238"/>
<path d="M186.6 310.528C186.497 314.514 186.19 318.492 185.681 322.447C185.156 325.616 184.309 328.976 181.987 331.227C179.666 333.477 176.023 333.467 172.905 332.942C167.937 331.922 163.076 330.442 158.382 328.522L156.797 327.917L156.656 328.25L158.261 328.865C162.97 330.816 167.853 332.32 172.844 333.356C174.475 333.657 176.14 333.722 177.789 333.548C179.479 333.396 181.069 332.686 182.31 331.53C184.773 329.138 185.621 325.696 186.156 322.517C186.721 318.672 186.912 314.827 187.104 310.982C186.948 310.818 186.779 310.666 186.6 310.528ZM224.385 279.242C220.038 278.259 215.615 277.648 211.164 277.415C207.852 277.236 204.534 277.646 201.365 278.626C198.211 279.765 195.423 281.731 193.291 284.318C191.212 286.908 189.693 289.902 188.83 293.108C187.947 296.286 187.366 299.54 187.094 302.827C186.862 305.199 186.731 307.561 186.62 309.892C186.791 310.084 186.953 310.225 187.094 310.376C187.205 307.863 187.336 305.33 187.599 302.837C187.867 299.59 188.449 296.376 189.335 293.24C190.185 290.097 191.68 287.165 193.725 284.631C195.773 282.116 198.466 280.205 201.516 279.101C204.617 278.108 207.874 277.698 211.124 277.889C215.625 278.132 220.1 278.732 224.506 279.686C224.476 279.605 224.435 279.464 224.385 279.272V279.242ZM246.305 283.612L246.164 283.39C240.916 282.774 235.789 281.654 230.612 280.534C228.694 280.13 226.787 279.716 224.849 279.323C224.919 279.478 224.974 279.64 225.011 279.807L230.521 280.978C235.799 282.078 241.077 283.228 246.467 283.844L246.305 283.612ZM259.889 395.141C257.765 391.457 255.306 387.978 252.542 384.746C251.448 383.489 250.181 382.395 248.778 381.496C247.359 380.569 245.674 380.137 243.984 380.265C240.573 380.618 237.797 382.758 235.385 384.958C232.015 388.096 229.068 391.629 226.03 395.05H226.676C229.623 391.699 232.469 388.308 235.688 385.281C238.06 383.111 240.815 381.022 244.034 380.699C247.254 380.376 250.09 382.717 252.239 385.028C254.938 388.165 257.344 391.544 259.425 395.121L259.607 395.413L260.031 395.363C259.98 395.333 259.98 395.252 259.889 395.171V395.141ZM174.802 389.933C170.758 384.752 166.329 379.883 161.551 375.37C157.221 371.485 152.104 368.094 146.312 366.903L146.221 367.236C151.923 368.417 156.979 371.797 161.288 375.683C166.133 380.053 170.281 385.149 174.459 390.216C175.761 391.78 177.062 393.365 178.374 394.929H178.99C177.577 393.304 176.215 391.629 174.802 389.963V389.933ZM185.056 308.398C180.676 304.26 175.417 300.657 169.413 299.436L168.757 299.305C168.72 299.422 168.676 299.537 168.625 299.648C168.84 299.685 169.052 299.732 169.261 299.79C175.206 300.96 180.363 304.563 184.773 308.691C185.399 309.276 186.014 309.892 186.6 310.497C186.6 310.316 186.6 310.124 186.6 309.922C186.115 309.438 185.601 308.913 185.056 308.428V308.398ZM263.936 316.048C262.011 316.995 260.23 318.212 258.648 319.661C253.713 324.051 249.656 329.239 244.963 333.79C242.684 336.124 240.182 338.229 237.495 340.078C234.827 341.944 231.81 343.252 228.624 343.923C225.436 344.54 222.141 344.285 219.086 343.186C216.074 341.964 213.308 340.206 210.922 337.999C209.993 337.151 209.075 336.283 208.227 335.385C208.085 335.255 207.95 335.116 207.824 334.971C204.271 331.297 201.153 327.261 197.974 323.264C194.502 318.904 191.02 314.474 187.114 310.447C187.104 310.639 187.104 310.831 187.114 311.022C190.833 315.016 194.346 319.196 197.641 323.547C200.749 327.452 203.807 331.429 207.268 335.082C207.395 335.227 207.53 335.366 207.672 335.496C208.611 336.505 209.6 337.433 210.629 338.362C213.047 340.628 215.859 342.434 218.925 343.691C222.071 344.821 225.463 345.083 228.745 344.448C232.01 343.778 235.102 342.441 237.828 340.522C240.541 338.651 243.069 336.526 245.377 334.174C250.059 329.541 254.106 324.354 258.981 319.984C260.477 318.585 262.179 317.424 264.027 316.543C264.017 316.381 264.017 316.23 263.936 316.078V316.048ZM222.639 270.26C221.599 265.304 221.637 260.182 222.75 255.243L222.417 255.051C221.251 260.088 221.189 265.318 222.235 270.381C222.794 273.394 223.512 276.375 224.385 279.312L224.839 279.393C223.947 276.389 223.212 273.341 222.639 270.26ZM233.306 308.095C232.297 301.556 230.077 295.349 228.008 289.132C226.999 286.044 225.919 282.946 224.98 279.837C224.82 279.819 224.662 279.788 224.506 279.746C225.455 282.966 226.524 286.135 227.534 289.284C229.552 295.49 231.793 301.707 232.761 308.156C233.343 311.35 233.333 314.624 232.731 317.814C231.99 320.977 230.398 323.877 228.129 326.201C225.831 328.512 223.083 330.325 220.055 331.53C217.033 332.762 213.9 333.705 210.7 334.345C209.741 334.567 208.792 334.739 207.834 334.931C207.637 334.957 207.441 334.994 207.248 335.042C201.97 335.99 196.601 336.636 191.363 338.069C188.255 338.968 184.934 340.199 182.855 342.893C181.839 344.255 181.306 345.917 181.342 347.617C181.379 349.28 181.644 350.93 182.129 352.521C184.016 358.859 187.296 364.632 190.263 370.435C193.23 376.238 196.318 382.102 198.337 388.339C199.052 390.511 199.549 392.749 199.82 395.02H200.113C199.845 392.72 199.351 390.451 198.64 388.248C196.621 381.97 193.594 376.137 190.616 370.284C187.639 364.43 184.41 358.678 182.543 352.41C181.675 349.383 181.19 345.76 183.219 343.156C185.247 340.552 188.436 339.371 191.515 338.503C196.793 337.09 202.273 336.485 207.662 335.476C207.854 335.425 208.046 335.405 208.247 335.365C209.095 335.223 209.963 335.032 210.821 334.84C214.05 334.21 217.211 333.267 220.257 332.024C223.355 330.801 226.166 328.948 228.513 326.584C230.841 324.188 232.471 321.201 233.226 317.945C233.854 314.695 233.885 311.357 233.316 308.095H233.306Z" fill="white"/>
<path d="M220.339 338.341C225.512 338.494 230.666 339.03 235.76 339.946C238.283 340.44 240.806 341.036 243.238 341.702C244.48 342.025 245.721 342.307 246.962 342.59C248.258 342.923 249.591 343.093 250.929 343.094C250.949 343.101 250.966 343.114 250.979 343.131C250.991 343.148 250.998 343.169 250.998 343.19C250.998 343.212 250.991 343.232 250.979 343.249C250.966 343.267 250.949 343.28 250.929 343.286C248.452 343.596 245.942 343.491 243.501 342.973C240.947 342.499 238.455 341.904 235.851 341.409C230.704 340.4 225.547 339.391 220.329 338.765C220.067 338.745 220.097 338.331 220.339 338.341Z" fill="#263238"/>
<path d="M207.924 343.64C212.126 342.944 216.365 342.489 220.62 342.277C222.749 342.176 224.868 342.197 226.998 342.277C228.007 342.277 229.016 342.368 230.026 342.439C231.035 342.509 232.246 342.742 233.366 342.802C233.477 342.802 233.487 342.984 233.366 342.984C232.357 342.984 231.247 343.115 230.197 343.145L227.018 343.256C224.889 343.327 222.769 343.418 220.65 343.478C216.401 343.579 212.162 343.731 207.924 343.983C207.712 344.054 207.712 343.67 207.924 343.64Z" fill="#263238"/>
<path d="M208.975 254.647C208.843 257.048 215.252 274.831 225.657 277.344C229.048 278.161 234.377 259.864 234.377 259.864L235.073 258.603L244.893 240.931L226.888 220.121L224.234 217.285C224.234 217.285 221.862 222.331 218.986 228.568C218.845 228.851 218.714 229.144 218.572 229.456C218.431 229.769 218.229 230.133 218.088 230.466C217.644 231.394 217.19 232.353 216.766 233.312C216.443 234.038 216.12 234.745 215.757 235.522C215.393 236.299 215.111 237.046 214.747 237.813C211.659 245.493 209.055 253.637 208.975 254.647Z" fill="#E5B78C"/>
<path d="M218.983 228.568C219.327 234.441 220.943 240.17 223.721 245.356C226.499 250.542 230.372 255.062 235.07 258.603L244.89 240.931L226.886 220.121L224.231 217.285C224.231 217.285 221.86 222.291 218.983 228.568Z" fill="#263238"/>
<path d="M278.086 214.247C276.935 249.691 255.58 253.012 247.941 252.749C240.997 252.517 217.401 250.852 214.878 215.479C212.355 180.106 229.199 169.458 245.095 169.125C260.99 168.792 279.236 178.804 278.086 214.247Z" fill="#E5B78C"/>
<path d="M273.282 207.969C272.485 207.799 271.696 207.587 270.921 207.334C270.055 207.228 269.25 206.837 268.63 206.223C268.473 205.995 268.395 205.72 268.41 205.443C268.425 205.165 268.53 204.901 268.711 204.689C269.133 204.326 269.645 204.082 270.193 203.983C270.741 203.883 271.306 203.932 271.829 204.124C272.949 204.349 273.946 204.982 274.625 205.901C274.766 206.119 274.841 206.375 274.84 206.635C274.84 206.895 274.764 207.15 274.622 207.369C274.481 207.587 274.279 207.76 274.041 207.867C273.803 207.973 273.54 208.009 273.282 207.969Z" fill="#263238"/>
<path d="M248.999 206.567C249.813 206.488 250.621 206.364 251.421 206.193C252.292 206.177 253.135 205.88 253.823 205.346C254.015 205.133 254.129 204.862 254.147 204.576C254.165 204.29 254.087 204.007 253.924 203.771C253.542 203.369 253.062 203.074 252.53 202.917C251.999 202.759 251.435 202.744 250.896 202.873C249.734 202.975 248.652 203.512 247.869 204.377C247.703 204.579 247.599 204.826 247.572 205.087C247.544 205.347 247.594 205.61 247.714 205.843C247.834 206.076 248.02 206.269 248.248 206.397C248.477 206.526 248.738 206.585 248.999 206.567Z" fill="#263238"/>
<path d="M254.147 215.569C254.147 215.478 253.955 215.68 253.955 215.771C253.955 218.193 253.551 220.958 251.341 221.695C251.27 221.695 251.27 221.836 251.341 221.826C254.036 221.533 254.53 217.9 254.147 215.569Z" fill="#263238"/>
<path d="M252.065 212.975C248.19 212.562 247.645 220.343 251.238 220.726C254.83 221.11 255.305 213.329 252.065 212.975Z" fill="#263238"/>
<path d="M250.513 213.279C249.796 213.673 249.08 214.409 248.252 214.43C247.425 214.45 246.647 213.592 246.082 212.764C246.022 212.684 245.951 212.764 245.941 212.845C245.81 214.339 246.274 215.873 247.858 216.236C249.443 216.599 250.442 215.298 250.886 213.824C251.007 213.552 250.795 213.128 250.513 213.279Z" fill="#263238"/>
<path d="M267.57 216.003C267.57 215.912 267.752 216.124 267.741 216.225C267.469 218.627 267.57 221.423 269.689 222.391C269.76 222.391 269.689 222.543 269.689 222.523C267.045 221.937 266.934 218.233 267.57 216.003Z" fill="#263238"/>
<path d="M269.909 213.652C273.805 213.652 273.502 221.453 269.909 221.443C266.316 221.433 266.649 213.642 269.909 213.652Z" fill="#263238"/>
<path d="M271.514 214.228C272.12 214.662 272.695 215.439 273.432 215.52C274.168 215.6 274.945 214.783 275.521 213.996C275.581 213.915 275.632 213.996 275.632 214.086C275.632 215.58 275.067 217.114 273.613 217.346C272.16 217.578 271.393 216.236 271.09 214.742C271.08 214.46 271.272 214.056 271.514 214.228Z" fill="#263238"/>
<path d="M252.481 235.32C252.986 235.945 253.49 236.783 254.338 236.965C255.232 237.047 256.132 236.94 256.982 236.652C257 236.649 257.018 236.651 257.035 236.658C257.051 236.665 257.065 236.677 257.075 236.692C257.085 236.707 257.09 236.725 257.089 236.743C257.089 236.761 257.083 236.778 257.073 236.793C256.675 237.225 256.167 237.541 255.604 237.708C255.041 237.875 254.443 237.887 253.874 237.742C253.399 237.559 252.99 237.238 252.698 236.821C252.407 236.404 252.247 235.909 252.239 235.4C252.219 235.259 252.4 235.229 252.481 235.32Z" fill="#263238"/>
<path d="M261.997 231.929C260.97 233.275 259.615 234.335 258.061 235.007C257.206 235.343 256.267 235.403 255.376 235.179C253.429 234.674 253.358 232.888 253.721 231.364C253.914 230.551 254.206 229.765 254.589 229.022C256.684 230.758 259.28 231.777 261.997 231.929Z" fill="#263238"/>
<path d="M258.104 235.057C257.249 235.393 256.31 235.453 255.419 235.229C253.472 234.724 253.401 232.938 253.764 231.414C255.853 231.565 257.963 232.978 258.104 235.057Z" fill="#FF9CBD"/>
<path d="M263.068 227.195C263.068 227.195 263.35 230.819 263.249 232.524C263.249 232.686 262.826 232.736 262.24 232.736C262.24 232.736 262.24 232.736 262.17 232.736C260.697 232.917 259.203 232.689 257.852 232.076C256.501 231.464 255.344 230.491 254.51 229.264C254.399 229.093 254.631 228.931 254.772 229.042C256.85 230.656 259.397 231.549 262.028 231.586C262.17 231.121 261.322 225.389 261.594 225.389C262.907 225.578 264.188 225.948 265.399 226.489C265.016 218.91 263.431 211.452 263.169 203.903C263.172 203.851 263.192 203.801 263.227 203.762C263.261 203.723 263.308 203.697 263.359 203.687C263.41 203.678 263.463 203.686 263.509 203.711C263.555 203.735 263.592 203.774 263.613 203.822C265.833 211.512 266.459 220.222 267.054 228.043C267.145 229.002 263.724 227.518 263.068 227.195Z" fill="#263238"/>
<path d="M217.42 218.304C221.275 218.062 231.276 207.415 231.549 188.795C231.549 188.795 230.176 205.497 228.925 207.97C227.673 210.442 234.516 201.985 234.92 186.968C234.92 186.968 243.256 192.942 250.361 194.9C257.466 196.858 261.795 196.778 262.3 196.263C262.804 195.748 252.359 192.498 249.523 189.259C249.523 189.259 268.416 197.958 277.115 198.584C278.124 198.655 279.245 177.966 265.771 169.246C252.298 160.526 231.034 170.074 225.332 175.624C225.332 175.624 218.611 176.633 211.344 186.584C204.078 196.535 213.272 218.567 217.42 218.304Z" fill="#263238"/>
<path d="M246.719 226.983C244.674 226.634 242.768 225.719 241.216 224.341C239.665 222.964 238.531 221.179 237.942 219.19C237.354 217.2 237.335 215.086 237.887 213.086C238.439 211.086 239.54 209.281 241.066 207.875C242.592 206.47 244.482 205.52 246.52 205.133C248.558 204.747 250.664 204.939 252.599 205.689C254.533 206.438 256.219 207.715 257.465 209.374C258.711 211.033 259.467 213.008 259.647 215.075C259.771 216.531 259.607 217.998 259.163 219.391C258.719 220.783 258.005 222.075 257.06 223.191C256.116 224.306 254.961 225.225 253.661 225.893C252.361 226.561 250.941 226.966 249.484 227.084C248.562 227.168 247.633 227.134 246.719 226.983ZM250.15 206.496C249.357 206.366 248.55 206.332 247.748 206.395C245.302 206.599 243.025 207.727 241.382 209.55C239.738 211.373 238.851 213.754 238.901 216.208C238.952 218.662 239.935 221.004 241.652 222.759C243.369 224.513 245.69 225.547 248.142 225.65C250.595 225.753 252.994 224.917 254.852 223.313C256.71 221.709 257.887 219.457 258.143 217.016C258.399 214.575 257.715 212.128 256.23 210.174C254.745 208.219 252.571 206.904 250.15 206.496Z" fill="#37474F"/>
<path d="M272.233 228.094C268.035 227.387 264.946 222.442 265.229 216.649C265.315 213.874 266.268 211.195 267.954 208.989C268.62 207.998 269.532 207.196 270.6 206.661C271.667 206.126 272.855 205.876 274.048 205.935C275.241 205.994 276.399 206.36 277.408 206.997C278.418 207.635 279.246 208.523 279.812 209.575C281.275 211.932 281.963 214.688 281.78 217.457C281.477 223.583 277.521 228.387 272.96 228.165C272.716 228.156 272.473 228.132 272.233 228.094ZM274.534 207.486C274.35 207.455 274.165 207.435 273.979 207.425C273.028 207.421 272.09 207.645 271.243 208.079C270.397 208.513 269.667 209.143 269.114 209.918C267.631 211.883 266.792 214.259 266.712 216.72C266.46 222.028 269.276 226.499 273.03 226.681C276.784 226.863 280.034 222.695 280.297 217.386C280.467 214.928 279.863 212.479 278.571 210.382C278.138 209.644 277.554 209.005 276.859 208.506C276.164 208.007 275.372 207.66 274.534 207.486Z" fill="#37474F"/>
<path d="M259.212 216.337L258.313 215.156C260.059 213.824 264.056 212.128 266.629 215.156L265.489 216.165C263.188 213.38 259.373 216.216 259.212 216.337Z" fill="#37474F"/>
<path d="M209.518 216.771L208.236 216.024C208.579 215.428 211.728 210.15 215.079 209.777C218.207 209.434 238.029 212.28 238.876 212.401L238.685 213.864C233.003 213.037 217.683 210.978 215.261 211.25C213.06 211.503 210.386 215.327 209.518 216.771Z" fill="#37474F"/>
<path d="M214.39 228.538C214.891 228.809 215.423 229.016 215.975 229.154C216.51 229.323 217.069 229.405 217.63 229.396C218.355 229.419 219.077 229.278 219.739 228.982C220.263 228.764 220.752 228.472 221.193 228.115C221.817 227.606 222.347 226.991 222.757 226.298L221.939 216.66C221.939 216.66 215.571 204.781 210.253 206.901C204.934 209.02 208.789 225.672 214.39 228.538Z" fill="#E5B78C"/>
<path d="M211.478 211.632C211.459 211.629 211.44 211.633 211.423 211.643C211.406 211.653 211.394 211.668 211.388 211.687C211.382 211.705 211.382 211.725 211.39 211.743C211.397 211.76 211.41 211.775 211.428 211.784C215.333 213.934 217.039 218.001 218.078 222.128C217.069 220.463 215.475 219.434 213.264 220.645C213.153 220.705 213.264 220.887 213.355 220.877C214.103 220.733 214.878 220.824 215.572 221.139C216.266 221.453 216.846 221.975 217.231 222.633C217.872 223.737 218.39 224.908 218.775 226.125C218.916 226.518 219.602 226.397 219.522 225.963V225.863C220.228 220.635 217.029 212.854 211.478 211.632Z" fill="#263238"/>
<path d="M215.058 227.115C215.083 227.439 215.204 227.749 215.405 228.005C215.607 228.261 215.88 228.452 216.19 228.552C216.499 228.653 216.832 228.659 217.146 228.571C217.459 228.482 217.739 228.302 217.95 228.054C218.161 227.806 218.294 227.501 218.332 227.177C218.369 226.854 218.31 226.526 218.161 226.237C218.012 225.947 217.781 225.708 217.496 225.55C217.211 225.391 216.886 225.321 216.561 225.348C216.128 225.384 215.727 225.59 215.445 225.921C215.163 226.252 215.024 226.681 215.058 227.115Z" fill="white"/>
<path d="M212 224.259C212.019 224.487 212.104 224.705 212.247 224.885C212.389 225.065 212.581 225.198 212.799 225.269C213.017 225.339 213.251 225.344 213.472 225.281C213.693 225.219 213.89 225.093 214.039 224.919C214.188 224.744 214.282 224.53 214.309 224.302C214.336 224.075 214.296 223.844 214.192 223.64C214.088 223.435 213.926 223.266 213.727 223.153C213.527 223.041 213.298 222.99 213.07 223.007C212.917 223.019 212.768 223.06 212.632 223.129C212.495 223.199 212.374 223.294 212.274 223.41C212.175 223.527 212.1 223.662 212.053 223.807C212.005 223.953 211.988 224.106 212 224.259Z" fill="white"/>
<path d="M185.467 267.09C161.316 304.522 129.526 367.134 146.834 379.114C175.284 398.854 254.255 405.172 272.32 405.878C280.112 406.191 291.496 354.489 285.824 348.353C280.152 342.217 197.345 344.316 196.356 339.27C195.801 336.434 200.514 311.284 206.095 280.008C212.544 244.02 192.36 256.372 185.467 267.09Z" fill="#E5B78C"/>
<path d="M271.979 345.336C271.979 345.336 295.615 343.247 311.147 342.611C319.806 342.258 334.702 342.964 341.181 345.639C350.88 349.595 388.897 372.353 383.569 381.688C378.755 390.145 348.579 366.439 348.579 366.439C348.579 366.439 381.147 387.632 373.477 396.776C365.806 405.919 335.267 374.573 335.267 374.573C335.267 374.573 368.239 397.129 358.853 405.273C351.788 411.43 322.521 384.625 322.521 384.625C322.521 384.625 350.729 404.214 343.715 410.864C335.944 418.212 307.383 395.161 307.383 395.161C286.673 409.048 271.142 407.181 260.242 404.547C257.578 403.881 271.979 345.336 271.979 345.336Z" fill="#E5B78C"/>
<path d="M337.789 358.364C341.705 360.716 345.681 363.067 349.375 365.762C353.069 368.456 356.672 371.282 360.103 374.31C368.5 381.728 372.607 387.692 372.315 387.349C365.371 379.275 352.302 369.445 348.608 366.751C344.914 364.056 341.372 361.21 337.688 358.495C337.587 358.425 337.688 358.304 337.789 358.364Z" fill="#263238"/>
<path d="M327.82 371.514C332.695 374.744 337.65 377.761 342.373 381.203C347.097 384.644 351.244 388.267 355.705 392.022C356.048 392.304 355.786 392.395 355.423 392.123C350.821 388.56 346.289 385.633 341.647 382.131C337.004 378.629 332.483 374.946 327.74 371.625C327.659 371.575 327.75 371.474 327.82 371.514Z" fill="#263238"/>
<path d="M317.234 381.274C324.924 385.815 331.777 391.78 338.357 397.785C338.68 398.077 338.357 398.158 337.973 397.875C331.05 392.254 325.671 387.783 317.072 381.546C316.941 381.445 317.072 381.183 317.234 381.274Z" fill="#263238"/>
<path d="M154.587 314.594L204.786 310.284C204.786 310.284 208.722 285.266 208.944 271.117C209.226 252.396 202.343 247.905 186.963 264.94C176.679 276.344 154.587 314.594 154.587 314.594Z" fill="#0694A2"/>
<path d="M198.671 310.83C199.205 310.689 204.342 310.073 204.726 310.133C205.109 307.176 205.463 304.219 205.886 301.272C206.088 299.799 206.33 298.326 206.583 296.852C206.835 295.379 207.108 293.39 207.36 291.957C207.36 291.735 207.683 291.756 207.663 291.957C207.521 293.845 207.36 295.258 207.229 296.892C207.108 298.346 206.956 299.819 206.775 301.272C206.391 304.351 206.108 307.651 205.563 310.699C205.563 310.941 199.215 311.032 198.681 310.981C198.58 311.001 198.59 310.85 198.671 310.83Z" fill="#263238"/>
<path d="M159.28 309.397C166.536 308.267 173.802 307.237 181.119 306.541C184.763 306.188 188.416 305.885 192.079 305.653C195.743 305.421 199.427 305.542 203.07 305.249C203.105 305.258 203.135 305.278 203.157 305.306C203.179 305.335 203.191 305.37 203.191 305.405C203.191 305.441 203.179 305.476 203.157 305.504C203.135 305.533 203.105 305.553 203.07 305.562C199.417 305.663 195.743 306.268 192.1 306.571C188.456 306.874 184.793 307.197 181.14 307.53C173.853 308.216 166.546 308.872 159.28 309.72C159.058 309.74 159.058 309.427 159.28 309.397Z" fill="#263238"/>
<path d="M383.578 381.667C383.847 381.065 383.972 380.409 383.942 379.75C383.912 379.091 383.729 378.448 383.406 377.873C382.874 376.674 382.196 375.545 381.388 374.512C379.738 372.446 377.915 370.525 375.938 368.769C371.969 365.256 367.783 361.997 363.404 359.01C359.024 355.983 354.613 353.046 350.092 350.331C347.844 348.957 345.48 347.781 343.027 346.819C341.816 346.355 340.565 345.991 339.283 345.608C338.046 345.202 336.781 344.885 335.499 344.659C332.901 344.242 330.284 343.963 327.657 343.822C325.023 343.66 322.379 343.549 319.724 343.519C314.426 343.428 309.128 343.519 303.819 343.7C298.511 343.882 293.212 344.165 287.914 344.508C282.615 344.851 277.317 345.265 272.008 345.668C266.821 345.194 261.634 344.75 256.446 344.235C261.644 344.457 266.851 344.75 272.059 345.012H271.998C277.287 344.407 282.585 343.892 287.884 343.438C293.182 342.984 298.501 342.621 303.819 342.378C309.138 342.136 314.466 342.015 319.795 342.065C325.157 342.015 330.513 342.403 335.811 343.226C337.146 343.47 338.461 343.807 339.747 344.235C341.009 344.619 342.311 345.002 343.572 345.497C346.075 346.508 348.486 347.734 350.778 349.16C355.36 351.926 359.72 354.994 364.029 358.122C368.362 361.224 372.479 364.616 376.352 368.275C378.285 370.138 380.054 372.164 381.64 374.33C382.438 375.41 383.096 376.587 383.598 377.832C383.889 378.43 384.038 379.087 384.035 379.752C384.031 380.417 383.875 381.072 383.578 381.667Z" fill="#263238"/>
<path d="M377.745 407.391H254.015V412.942H377.745V407.391Z" fill="#455A64"/>
<path d="M377.754 407.391H315.475V412.942H377.754V407.391Z" fill="#37474F"/>
<path d="M319.251 412.942H439.833L455.597 331.044H335.015L319.251 412.942Z" fill="#37474F"/>
<path d="M324.154 412.942H444.736L460.5 331.044H339.918L324.154 412.942Z" fill="#455A64"/>
<path d="M384.993 371.988C384.883 372.926 384.976 373.876 385.264 374.775C385.551 375.674 386.028 376.501 386.662 377.2C387.295 377.9 388.071 378.456 388.938 378.831C389.804 379.206 390.74 379.392 391.684 379.375C393.683 379.339 395.599 378.571 397.07 377.217C398.541 375.863 399.465 374.017 399.667 372.028C399.769 371.095 399.671 370.15 399.379 369.257C399.088 368.364 398.61 367.544 397.977 366.85C397.344 366.156 396.571 365.604 395.709 365.232C394.847 364.86 393.915 364.676 392.976 364.691C390.985 364.727 389.075 365.487 387.605 366.831C386.135 368.174 385.207 370.008 384.993 371.988Z" fill="white"/>
</svg>
